G04 Layer_Color=65535*
%FSLAX43Y43*%
%MOMM*%
G71*
G01*
G75*
%ADD17C,0.254*%
%ADD21C,0.250*%
%ADD22C,0.200*%
D17*
X106488Y3479D02*
Y6019D01*
X109028D01*
X106488Y3479D02*
X109028D01*
X106488Y6654D02*
X107123Y6019D01*
X106488Y6654D02*
Y7924D01*
X107123Y8559D01*
X108393D01*
X109028Y7924D01*
Y6654D02*
Y7924D01*
X108393Y6019D02*
X109028Y6654D01*
Y3479D02*
Y6019D01*
X108393Y8559D02*
X109028Y9194D01*
Y10464D01*
X108393Y11099D02*
X109028Y10464D01*
X107123Y11099D02*
X108393D01*
X106488Y10464D02*
X107123Y11099D01*
X106488Y9194D02*
Y10464D01*
Y9194D02*
X107123Y8559D01*
X108393Y11099D02*
X109028Y11734D01*
Y13004D01*
X108393Y13639D02*
X109028Y13004D01*
X107123Y13639D02*
X108393D01*
X106488Y13004D02*
X107123Y13639D01*
X106488Y11734D02*
Y13004D01*
Y11734D02*
X107123Y11099D01*
X86786Y18157D02*
Y19681D01*
X87548D01*
X87802Y19427D01*
Y18919D01*
X87548Y18665D01*
X86786D01*
X87294D02*
X87802Y18157D01*
X88310D02*
X88818D01*
X88564D01*
Y19681D01*
X88310Y19427D01*
X25900Y15900D02*
X24376D01*
Y16662D01*
X24630Y16916D01*
X25138D01*
X25392Y16662D01*
Y15900D01*
Y16408D02*
X25900Y16916D01*
Y18439D02*
Y17424D01*
X24884Y18439D01*
X24630D01*
X24376Y18185D01*
Y17677D01*
X24630Y17424D01*
X79231Y27528D02*
Y26259D01*
X79485Y26005D01*
X79993D01*
X80246Y26259D01*
Y27528D01*
X80754Y26005D02*
X81262D01*
X81008D01*
Y27528D01*
X80754Y27274D01*
X27174Y27521D02*
Y26251D01*
X27427Y25997D01*
X27935D01*
X28189Y26251D01*
Y27521D01*
X29713Y25997D02*
X28697D01*
X29713Y27013D01*
Y27267D01*
X29459Y27521D01*
X28951D01*
X28697Y27267D01*
X86973Y14946D02*
Y13930D01*
X87481Y13423D01*
X87988Y13930D01*
Y14946D01*
X88496D02*
Y13423D01*
X89258D01*
X89512Y13677D01*
Y14692D01*
X89258Y14946D01*
X88496D01*
X90020Y13423D02*
X90528D01*
X90274D01*
Y14946D01*
X90020Y14692D01*
X93909Y5453D02*
Y4437D01*
X94417Y3930D01*
X94925Y4437D01*
Y5453D01*
X95433D02*
Y3930D01*
X96194D01*
X96448Y4184D01*
Y5199D01*
X96194Y5453D01*
X95433D01*
X97972Y3930D02*
X96956D01*
X97972Y4945D01*
Y5199D01*
X97718Y5453D01*
X97210D01*
X96956Y5199D01*
X26308Y8843D02*
Y7827D01*
X26816Y7319D01*
X27324Y7827D01*
Y8843D01*
X27832D02*
Y7319D01*
X28593D01*
X28847Y7573D01*
Y8589D01*
X28593Y8843D01*
X27832D01*
X29355Y8589D02*
X29609Y8843D01*
X30117D01*
X30371Y8589D01*
Y8335D01*
X30117Y8081D01*
X29863D01*
X30117D01*
X30371Y7827D01*
Y7573D01*
X30117Y7319D01*
X29609D01*
X29355Y7573D01*
X80508Y14843D02*
Y13827D01*
X81016Y13319D01*
X81524Y13827D01*
Y14843D01*
X82032D02*
Y13319D01*
X82793D01*
X83047Y13573D01*
Y14589D01*
X82793Y14843D01*
X82032D01*
X84317Y13319D02*
Y14843D01*
X83555Y14081D01*
X84571D01*
X106615Y16052D02*
X107631Y14528D01*
Y16052D02*
X106615Y14528D01*
X108139D02*
X108647D01*
X108393D01*
Y16052D01*
X108139Y15798D01*
D21*
X82410Y21615D02*
G03*
X82410Y21615I-125J0D01*
G01*
X27940Y24990D02*
G03*
X27940Y24990I-125J0D01*
G01*
D22*
X84108Y17119D02*
Y20719D01*
X85908Y17119D02*
Y20719D01*
X84108Y17119D02*
X85908D01*
X84108Y20719D02*
X85908D01*
X26600Y15200D02*
Y18800D01*
X28400Y15200D02*
Y18800D01*
X26600Y15200D02*
X28400D01*
X26600Y18800D02*
X28400D01*
X80085Y21965D02*
X81685D01*
X80085D02*
Y22715D01*
Y24965D02*
X81685D01*
X80085Y24215D02*
Y24965D01*
X28415Y24640D02*
X30015D01*
Y23890D02*
Y24640D01*
X28415Y21640D02*
X30015D01*
Y22390D01*
X88408Y10719D02*
Y12519D01*
X86808D02*
X91508D01*
X86808Y10719D02*
Y12519D01*
Y10719D02*
X91508D01*
Y12519D01*
X95358Y1219D02*
Y3019D01*
X93758D02*
X98458D01*
X93758Y1219D02*
Y3019D01*
Y1219D02*
X98458D01*
Y3019D01*
X26608Y9619D02*
X30208D01*
X26608Y11419D02*
X30208D01*
Y9619D02*
Y11419D01*
X26608Y9619D02*
Y11419D01*
X84008Y10719D02*
Y12519D01*
X80408Y10719D02*
Y12519D01*
Y10719D02*
X84008D01*
X80408Y12519D02*
X84008D01*
M02*
