G04 Layer_Physical_Order=1*
G04 Layer_Color=255*
%FSLAX43Y43*%
%MOMM*%
G71*
G01*
G75*
%ADD10R,1.250X1.000*%
%ADD11R,1.000X0.700*%
%ADD12R,0.910X1.220*%
%ADD13R,1.000X1.250*%
%ADD14C,0.800*%
%ADD15C,0.500*%
%ADD16C,0.400*%
%ADD17C,0.254*%
%ADD18C,2.000*%
%ADD19C,1.524*%
%ADD20R,2.000X2.000*%
D10*
X85008Y17919D02*
D03*
Y19919D02*
D03*
X27500Y16000D02*
D03*
Y18000D02*
D03*
D11*
X82285Y22515D02*
D03*
Y24415D02*
D03*
X79885Y23465D02*
D03*
X27815Y24090D02*
D03*
Y22190D02*
D03*
X30215Y23140D02*
D03*
D12*
X87533Y11619D02*
D03*
X90808D02*
D03*
X94483Y2119D02*
D03*
X97758D02*
D03*
D13*
X29408Y10519D02*
D03*
X27408D02*
D03*
X83208Y11619D02*
D03*
X81208D02*
D03*
D14*
X106518Y7379D02*
X107758D01*
X106748Y14119D02*
X108408Y12459D01*
X79500Y26500D02*
X84000D01*
X78508Y25508D02*
X79500Y26500D01*
X78508Y9219D02*
Y25508D01*
X85008Y19919D02*
Y25492D01*
X84000Y26500D02*
X85008Y25492D01*
X26508Y23758D02*
X26840Y24090D01*
X26508Y19819D02*
Y23758D01*
X27815Y26026D02*
X28808Y27019D01*
X27500Y18000D02*
Y18827D01*
X26508Y19819D02*
X27500Y18827D01*
X32008Y9619D02*
X35377Y6250D01*
X43750D01*
X103639Y4500D02*
X106518Y7379D01*
X63750Y4500D02*
X103639D01*
X75658Y6369D02*
X78508Y9219D01*
X61250Y6250D02*
X75658Y6369D01*
X43750Y6250D02*
X53750D01*
X61250D01*
X31108Y27019D02*
X32008Y26119D01*
Y9619D02*
Y26119D01*
X92708Y14119D02*
X106748D01*
X86908Y19919D02*
X92708Y14119D01*
X28808Y27019D02*
X31108D01*
X85008Y19919D02*
X86908D01*
D15*
X82285Y22500D02*
X82427D01*
X85008Y19919D01*
X94002Y2500D02*
X94483Y2019D01*
X26840Y24090D02*
X27815D01*
Y26026D01*
X27750Y12177D02*
Y16119D01*
X27500Y10500D02*
Y11927D01*
X27750Y12177D01*
X30708Y7119D02*
X33327Y4500D01*
X46250D01*
X29308Y6819D02*
X33377Y2750D01*
X48750D01*
X94000Y2500D02*
X94002D01*
X93750Y2750D02*
X94000Y2500D01*
X66250Y2750D02*
X93750D01*
X58750Y4500D02*
X59066Y4674D01*
X106308Y10319D02*
X108008D01*
X104008Y12619D02*
X106308Y10319D01*
X91808Y12619D02*
X104008D01*
X105838Y2269D02*
X108408Y4839D01*
X79885Y4719D02*
Y23465D01*
X58750Y4500D02*
X63750D01*
X51250D02*
X58750D01*
X56250Y2750D02*
X66250D01*
X46250Y4500D02*
X51250D01*
X48750Y2750D02*
X56250D01*
X90808Y11619D02*
X91808Y12619D01*
X98258Y2269D02*
X105838D01*
X30708Y7119D02*
Y22646D01*
X30215Y23140D02*
X30708Y22646D01*
X29308Y6819D02*
Y10265D01*
X27965Y22190D02*
X29708Y20446D01*
Y10665D02*
Y20446D01*
X85008Y13419D02*
Y17919D01*
X83208Y11619D02*
X85008Y13419D01*
D16*
X81108Y23358D02*
X81808Y24058D01*
X81108Y11719D02*
Y23358D01*
X86508Y8619D02*
X87533Y9644D01*
X82508Y8619D02*
X86508D01*
X81408Y9719D02*
X82508Y8619D01*
X87533Y9644D02*
Y11619D01*
X81408Y9719D02*
Y11419D01*
X81208Y11619D02*
X81408Y11419D01*
X81108Y11719D02*
X81208Y11619D01*
D17*
X29308Y10265D02*
X29708Y10665D01*
X108008Y10319D02*
X108408Y9919D01*
X27815Y22190D02*
X27965D01*
D18*
X96758Y8869D02*
D03*
X103008D02*
D03*
X107758Y9829D02*
D03*
Y7289D02*
D03*
Y12369D02*
D03*
D19*
X66250Y2750D02*
D03*
X63750Y4500D02*
D03*
X43750Y6250D02*
D03*
X46250Y4500D02*
D03*
X48750Y2750D02*
D03*
X51250Y4500D02*
D03*
X53750Y6250D02*
D03*
X56250Y2750D02*
D03*
X58750Y4500D02*
D03*
X61250Y6250D02*
D03*
D20*
X107758Y4749D02*
D03*
M02*
