G04 Layer_Color=16711935*
%FSLAX43Y43*%
%MOMM*%
G71*
G01*
G75*
%ADD30C,0.013*%
D30*
X5965Y15557D02*
G03*
X5965Y15557I-400J0D01*
G01*
X18965D02*
G03*
X18965Y15557I-400J0D01*
G01*
X24965Y9557D02*
G03*
X24965Y9557I-400J0D01*
G01*
X12465D02*
G03*
X12465Y9557I-400J0D01*
G01*
X21065Y4057D02*
G03*
X24065Y7057I0J3000D01*
G01*
X25065Y8307D02*
G03*
X24065Y8307I-500J0D01*
G01*
X25065Y3057D02*
G03*
X28065Y57I3000J0D01*
G01*
X107065D02*
G03*
X110065Y3057I0J3000D01*
G01*
Y27057D02*
G03*
X107065Y30057I-3000J0D01*
G01*
X79065D02*
G03*
X76065Y27057I0J-3000D01*
G01*
X75065Y21557D02*
G03*
X76065Y21557I500J0D01*
G01*
X75065Y28057D02*
G03*
X73065Y30057I-2000J0D01*
G01*
X37065D02*
G03*
X35065Y28057I0J-2000D01*
G01*
X34065Y21557D02*
G03*
X35065Y21557I500J0D01*
G01*
X34065Y27057D02*
G03*
X31065Y30057I-3000J0D01*
G01*
X3065D02*
G03*
X65Y27057I0J-3000D01*
G01*
Y19057D02*
G03*
X3065Y16057I3000J0D01*
G01*
X4315Y15057D02*
G03*
X4315Y16057I0J500D01*
G01*
X3065Y15057D02*
G03*
X65Y12057I0J-3000D01*
G01*
Y7057D02*
G03*
X3065Y4057I3000J0D01*
G01*
X8065D02*
G03*
X11065Y7057I0J3000D01*
G01*
X11565Y8807D02*
G03*
X11065Y8307I0J-500D01*
G01*
X13065D02*
G03*
X12565Y8807I-500J0D01*
G01*
X13065Y7057D02*
G03*
X16065Y4057I3000J0D01*
G01*
X11065Y10807D02*
G03*
X11565Y10307I500J0D01*
G01*
X11065Y12057D02*
G03*
X8065Y15057I-3000J0D01*
G01*
X6815Y16057D02*
G03*
X6815Y15057I0J-500D01*
G01*
X17315D02*
G03*
X17315Y16057I0J500D01*
G01*
X16065Y15057D02*
G03*
X13065Y12057I0J-3000D01*
G01*
X12565Y10307D02*
G03*
X13065Y10807I0J500D01*
G01*
X24065D02*
G03*
X25065Y10807I500J0D01*
G01*
X24065Y12057D02*
G03*
X21065Y15057I-3000J0D01*
G01*
X19815Y16057D02*
G03*
X19815Y15057I0J-500D01*
G01*
X25065Y13057D02*
G03*
X22065Y16057I-3000J0D01*
G01*
X35065Y20057D02*
G03*
X35065Y20057I-500J0D01*
G01*
X75997Y20117D02*
G03*
X75997Y20117I-500J0D01*
G01*
X61586Y26057D02*
G03*
X61586Y26057I-1550J0D01*
G01*
X58615Y20057D02*
G03*
X58615Y20057I-1550J0D01*
G01*
X55008Y14057D02*
G03*
X55008Y14057I-1550J0D01*
G01*
X29348Y24313D02*
G03*
X29348Y24313I-250J0D01*
G01*
X67165Y20057D02*
G03*
X67165Y20057I-2100J0D01*
G01*
X62136Y14057D02*
G03*
X62136Y14057I-2100J0D01*
G01*
X70464Y26057D02*
G03*
X70464Y26057I-2100J0D01*
G01*
X48565Y20057D02*
G03*
X48565Y20057I-5500J0D01*
G01*
X102565Y19057D02*
G03*
X102565Y27057I0J4000D01*
G01*
X97565D02*
G03*
X97565Y19057I0J-4000D01*
G01*
X12565D02*
G03*
X12565Y27057I0J4000D01*
G01*
X7565D02*
G03*
X7565Y19057I0J-4000D01*
G01*
X69065Y10057D02*
G03*
X75065Y16057I0J6000D01*
G01*
X76065Y18557D02*
G03*
X75065Y18557I-500J0D01*
G01*
X73065Y8057D02*
G03*
X76065Y11057I0J3000D01*
G01*
X34065D02*
G03*
X37065Y8057I3000J0D01*
G01*
X35065Y18557D02*
G03*
X34065Y18557I-500J0D01*
G01*
X35065Y12057D02*
G03*
X37065Y10057I2000J0D01*
G01*
X9815Y9557D02*
G03*
X9815Y9557I-4250J0D01*
G01*
X22815D02*
G03*
X22815Y9557I-4250J0D01*
G01*
X16065Y4057D02*
X21065D01*
X24065Y7057D02*
Y8307D01*
X25065Y3057D02*
Y8307D01*
X28065Y57D02*
X107065D01*
X110065Y3057D02*
Y27057D01*
X79065Y30057D02*
X107065D01*
X76065Y21557D02*
Y27057D01*
X75065Y21557D02*
Y28057D01*
X37065Y30057D02*
X73065D01*
X35065Y21557D02*
Y28057D01*
X34065Y21557D02*
Y27057D01*
X3065Y30057D02*
X31065D01*
X65Y19057D02*
Y27057D01*
X3065Y16057D02*
X4315D01*
X3065Y15057D02*
X4315D01*
X65Y7057D02*
Y12057D01*
X3065Y4057D02*
X8065D01*
X11065Y7057D02*
Y8307D01*
X11565Y8807D02*
X12565D01*
X13065Y7057D02*
Y8307D01*
X11565Y10307D02*
X12565D01*
X11065Y10807D02*
Y12057D01*
X6815Y15057D02*
X8065D01*
X6815Y16057D02*
X17315D01*
X16065Y15057D02*
X17315D01*
X13065Y10807D02*
Y12057D01*
X25065Y10807D02*
Y13057D01*
X24065Y10807D02*
Y12057D01*
X19815Y15057D02*
X21065D01*
X19815Y16057D02*
X22065D01*
X97565Y19057D02*
X102565D01*
X97565Y27057D02*
X102565D01*
X7565Y19057D02*
X12565D01*
X7565Y27057D02*
X12565D01*
X37065Y10057D02*
X69065D01*
X75065Y16057D02*
Y18557D01*
X76065Y11057D02*
Y18557D01*
X37065Y8057D02*
X73065D01*
X34065Y11057D02*
Y18557D01*
X35065Y12057D02*
Y18557D01*
M02*
